<?xml version="1.0" encoding="UTF-8" standalone="no"?>
<!-- Created with Inkscape (http://www.inkscape.org/) -->

<svg
   width="187.09839mm"
   height="90.013542mm"
   viewBox="0 0 187.09839 90.013542"
   version="1.1"
   id="svg1277"
   inkscape:version="1.1.1 (3bf5ae0d25, 2021-09-20)"
   sodipodi:docname="logo-kava-dark.svg"
   xmlns:inkscape="http://www.inkscape.org/namespaces/inkscape"
   xmlns:sodipodi="http://sodipodi.sourceforge.net/DTD/sodipodi-0.dtd"
   xmlns="http://www.w3.org/2000/svg"
   xmlns:svg="http://www.w3.org/2000/svg">
  <sodipodi:namedview
     id="namedview1279"
     pagecolor="#ffffff"
     bordercolor="#666666"
     borderopacity="1.0"
     inkscape:pageshadow="2"
     inkscape:pageopacity="0.0"
     inkscape:pagecheckerboard="0"
     inkscape:document-units="mm"
     showgrid="false"
     fit-margin-top="0"
     fit-margin-left="0"
     fit-margin-right="0"
     fit-margin-bottom="0"
     inkscape:zoom="0.46324355"
     inkscape:cx="271.99515"
     inkscape:cy="100.37916"
     inkscape:window-width="1366"
     inkscape:window-height="705"
     inkscape:window-x="-8"
     inkscape:window-y="-8"
     inkscape:window-maximized="1"
     inkscape:current-layer="layer1" />
  <defs
     id="defs1274" />
  <g
     inkscape:label="Layer 1"
     inkscape:groupmode="layer"
     id="layer1"
     transform="translate(23.297274,-104.42416)">
    <g
       id="g1587">
      <path
         id="path219470"
         style="fill:#cffafe;fill-opacity:1;stroke:none;stroke-width:22.8004;stroke-linecap:square;stroke-linejoin:miter;stroke-miterlimit:4;stroke-dasharray:none;stroke-opacity:1"
         d="m 40.0745,149.4645 -8.82583,8.35579 6.67524,15.76929 h 12.36286 z" />
      <path
         id="path219472"
         style="fill:#22d3ee;fill-opacity:1;stroke:none;stroke-width:26.9482;stroke-linecap:square;stroke-linejoin:miter;stroke-miterlimit:4;stroke-dasharray:none;stroke-opacity:1"
         d="m 44.90695,135.94976 -31.56318,30.9287 -2.59011,6.71112 h 12.00807 l 38.41193,-37.63982 z" />
      <path
         id="path219474"
         style="fill:#22d3ee;fill-opacity:1;stroke:none;stroke-width:22.8004;stroke-linecap:square;stroke-linejoin:miter;stroke-miterlimit:4;stroke-dasharray:none;stroke-opacity:1"
         d="m 68.29711,135.99841 -8.85487,8.67674 11.15918,28.91443 h 12.20359 z" />
      <path
         id="path219476"
         style="fill:#cffafe;fill-opacity:1;stroke:none;stroke-width:26.9482;stroke-linecap:square;stroke-linejoin:miter;stroke-miterlimit:4;stroke-dasharray:none;stroke-opacity:1"
         d="m 68.32301,135.98528 -21.08141,20.65761 4.76919,11.26647 c 0,0 4.98605,-5.29763 11.83893,-11.66769 6.85289,-6.37007 9.50797,-3.5889 11.95026,-0.80281 z"
         sodipodi:nodetypes="ccczcc" />
      <path
         id="path219478"
         style="fill:#22d3ee;fill-opacity:1;stroke:none;stroke-width:22.8004;stroke-linecap:square;stroke-linejoin:miter;stroke-miterlimit:4;stroke-dasharray:none;stroke-opacity:1"
         d="m 103.1907,135.94976 -14.52677,37.63982 h 12.20359 l 14.52658,-37.63982 z" />
      <path
         id="path219480"
         style="fill:#cffafe;fill-opacity:1;stroke:none;stroke-width:22.8004;stroke-linecap:square;stroke-linejoin:miter;stroke-miterlimit:4;stroke-dasharray:none;stroke-opacity:1"
         d="m 74.14437,135.94976 14.52659,37.63982 h 12.19656 l 4.24204,-10.9909 c -6.75185,7.5461 -7.53665,2.43662 -10.30932,-4.74755 l -8.45265,-21.90137 z"
         sodipodi:nodetypes="ccccccc" />
      <path
         id="path219482"
         style="fill:#22d3ee;fill-opacity:1;stroke:none;stroke-width:22.8004;stroke-linecap:square;stroke-linejoin:miter;stroke-miterlimit:4;stroke-dasharray:none;stroke-opacity:1"
         d="m 135.9165,173.58959 -14.52677,-37.63983 h 12.20358 l 14.52659,37.63983 z" />
      <path
         id="path219484"
         style="fill:#cffafe;fill-opacity:1;stroke:none;stroke-width:22.8004;stroke-linecap:square;stroke-linejoin:miter;stroke-miterlimit:4;stroke-dasharray:none;stroke-opacity:1"
         d="m 106.87017,173.58959 14.52658,-37.63983 h 12.19656 l 6.13935,15.91136 c -5.28473,-8.12133 -8.66761,-9.60055 -12.36804,-0.0614 l -8.29123,21.78989 z"
         sodipodi:nodetypes="ccccccc" />
      <path
         id="path219486"
         style="fill:#cffafe;fill-opacity:1;stroke:none;stroke-width:22.8004;stroke-linecap:square;stroke-linejoin:miter;stroke-miterlimit:4;stroke-dasharray:none;stroke-opacity:1"
         d="m 24.77358,135.94976 -14.52677,37.63982 h 12.51492 l 8.92594,-8.74747 c 0,0 -5.21457,3.05877 -6.70813,0.33925 -1.49355,-2.71953 11.99745,-29.2316 11.99745,-29.2316 z"
         sodipodi:nodetypes="cccczcc" />
      <path
         id="path219490"
         style="color:#000000;fill:#22d3ee;fill-opacity:1;stroke-width:6.56261;stroke-linecap:round;stroke-linejoin:round;-inkscape-stroke:none"
         d="m 9.33785,115.53362 a 3.2816426,3.2816426 0 0 0 -2.84198,1.64056 l -5.82156,10.08375 a 3.2816426,3.2816426 0 0 0 0,3.28114 l 5.82156,10.08374 a 3.2816426,3.2816426 0 0 0 2.84198,1.64056 h 7.85431 a 3.2816426,3.2816426 0 0 1 -2.84201,-1.64056 L 8.52861,130.53907 a 3.2816426,3.2816426 0 0 1 0,-3.28114 l 5.82154,-10.08375 a 3.2816426,3.2816426 0 0 1 2.84201,-1.64056 z" />
      <path
         id="path219492"
         style="color:#000000;fill:#cffafe;fill-opacity:1;stroke-width:6.56261;stroke-linecap:round;stroke-linejoin:round;-inkscape-stroke:none"
         d="m -4.247,130.07274 a 3.2816426,3.2816426 0 0 1 2.84198,1.64057 l 5.82156,10.08375 a 3.2816426,3.2816426 0 0 1 0,3.28114 l -5.82156,10.08373 A 3.2816426,3.2816426 0 0 1 -4.247,156.8025 h -7.85432 a 3.2816426,3.2816426 0 0 0 2.84201,-1.64057 l 5.82154,-10.08373 a 3.2816426,3.2816426 0 0 0 0,-3.28114 l -5.82154,-10.08375 a 3.2816426,3.2816426 0 0 0 -2.84201,-1.64057 z" />
      <g
         aria-label="lead to digital transformation"
         id="text219500"
         style="font-size:6.31364px;line-height:1.25;letter-spacing:1.87854px;fill:#cffafe;stroke-width:0.157841">
        <path
           d="m 11.359469,182.99833 q -0.542973,-0.0126 -0.770264,-0.2336 -0.227291,-0.22098 -0.227291,-0.68819 v -3.93971 l 0.587168,-0.10102 v 3.94603 q 0,0.14521 0.02525,0.23991 0.02525,0.0947 0.08208,0.15153 0.05682,0.0568 0.151527,0.0884 0.0947,0.0253 0.233605,0.0442 z"
           style="font-family:Ubuntu;-inkscape-font-specification:Ubuntu"
           id="path1475" />
        <path
           d="m 13.793601,181.29996 q 0,-0.43564 0.126273,-0.75763 0.126273,-0.32831 0.334623,-0.54298 0.20835,-0.21466 0.479837,-0.32199 0.271486,-0.10733 0.5556,-0.10733 0.662932,0 1.016496,0.4167 0.353564,0.41038 0.353564,1.25641 0,0.0379 0,0.10102 0,0.0568 -0.0063,0.10733 h -2.247655 q 0.03788,0.51141 0.296741,0.77658 0.258859,0.26517 0.808146,0.26517 0.309368,0 0.517718,-0.0505 0.214664,-0.0568 0.321996,-0.10733 l 0.08208,0.49246 q -0.107332,0.0568 -0.378818,0.11996 -0.265173,0.0631 -0.60611,0.0631 -0.429327,0 -0.745009,-0.12627 -0.309369,-0.13259 -0.511405,-0.35988 -0.202037,-0.22729 -0.303055,-0.53666 -0.0947,-0.31568 -0.0947,-0.68819 z m 2.25397,-0.32199 q 0.0063,-0.39776 -0.202037,-0.65031 -0.202036,-0.25886 -0.561914,-0.25886 -0.202036,0 -0.359877,0.0821 -0.151527,0.0758 -0.258859,0.20204 -0.107332,0.12627 -0.170469,0.29042 -0.05682,0.16416 -0.07576,0.33463 z"
           style="font-family:Ubuntu;-inkscape-font-specification:Ubuntu"
           id="path1477" />
        <path
           d="m 20.49575,182.51218 q 0.20835,0 0.366191,-0.006 0.164155,-0.0126 0.271487,-0.0379 v -0.97862 q -0.06314,-0.0316 -0.20835,-0.0505 -0.1389,-0.0252 -0.340937,-0.0252 -0.132586,0 -0.284114,0.0189 -0.145213,0.0189 -0.271486,0.0821 -0.119959,0.0568 -0.202037,0.16415 -0.08208,0.10102 -0.08208,0.27149 0,0.31568 0.202037,0.44195 0.202036,0.11996 0.549286,0.11996 z m -0.05051,-2.94215 q 0.353564,0 0.593482,0.0947 0.246232,0.0884 0.391446,0.25886 0.151527,0.16415 0.214664,0.39776 0.06314,0.22729 0.06314,0.50509 v 2.05193 q -0.07576,0.0126 -0.214664,0.0379 -0.132586,0.0189 -0.303054,0.0379 -0.170469,0.0189 -0.372505,0.0316 -0.195723,0.0189 -0.391446,0.0189 -0.2778,0 -0.511405,-0.0568 -0.233604,-0.0568 -0.404073,-0.17678 -0.170468,-0.12627 -0.265172,-0.32831 -0.09471,-0.20203 -0.09471,-0.48615 0,-0.27148 0.107332,-0.46721 0.113645,-0.19572 0.303055,-0.31568 0.189409,-0.11996 0.441954,-0.17678 0.252546,-0.0568 0.530346,-0.0568 0.08839,0 0.183096,0.0126 0.0947,0.006 0.176782,0.0253 0.08839,0.0126 0.151527,0.0252 0.06314,0.0126 0.08839,0.0189 v -0.16415 q 0,-0.14522 -0.03157,-0.28412 -0.03157,-0.14521 -0.113646,-0.25254 -0.08208,-0.11365 -0.227291,-0.17678 -0.1389,-0.0694 -0.366191,-0.0694 -0.290427,0 -0.511405,0.0442 -0.214664,0.0379 -0.321995,0.0821 l -0.06945,-0.48615 q 0.113645,-0.0505 0.378818,-0.0947 0.265173,-0.0505 0.574541,-0.0505 z"
           style="font-family:Ubuntu;-inkscape-font-specification:Ubuntu"
           id="path1479" />
        <path
           d="m 26.680189,180.3466 q -0.107332,-0.0884 -0.309368,-0.17046 -0.202037,-0.0821 -0.441955,-0.0821 -0.252546,0 -0.435641,0.0947 -0.176782,0.0884 -0.290428,0.25255 -0.113645,0.15784 -0.164154,0.37882 -0.05051,0.22097 -0.05051,0.47352 0,0.57454 0.284114,0.89022 0.284114,0.30937 0.757637,0.30937 0.239918,0 0.397759,-0.0189 0.164155,-0.0252 0.252546,-0.0505 z m 0,-2.20977 0.587169,-0.10102 v 4.80468 q -0.202037,0.0568 -0.517719,0.11365 -0.315682,0.0568 -0.726069,0.0568 -0.378818,0 -0.681873,-0.11996 -0.303054,-0.11996 -0.517718,-0.34094 -0.214664,-0.22097 -0.334623,-0.53666 -0.113646,-0.32199 -0.113646,-0.71975 0,-0.37882 0.0947,-0.6945 0.101018,-0.31568 0.290427,-0.54297 0.18941,-0.2273 0.460896,-0.35357 0.2778,-0.12627 0.631364,-0.12627 0.284114,0 0.498778,0.0758 0.220977,0.0758 0.328309,0.14522 z"
           style="font-family:Ubuntu;-inkscape-font-specification:Ubuntu"
           id="path1481" />
        <path
           d="m 34.042344,179.6521 h 1.243788 v 0.49247 h -1.243788 v 1.51527 q 0,0.24623 0.03788,0.41039 0.03788,0.15784 0.113646,0.25254 0.07576,0.0884 0.189409,0.12628 0.113646,0.0379 0.265173,0.0379 0.265173,0 0.423014,-0.0568 0.164154,-0.0631 0.227291,-0.0884 l 0.113645,0.48615 q -0.08839,0.0442 -0.309368,0.10734 -0.220977,0.0694 -0.505091,0.0694 -0.334623,0 -0.555601,-0.0821 -0.214663,-0.0884 -0.34725,-0.25886 -0.132586,-0.17047 -0.189409,-0.4167 -0.05051,-0.25255 -0.05051,-0.58086 v -2.92952 l 0.587168,-0.10102 z"
           style="font-family:Ubuntu;-inkscape-font-specification:Ubuntu"
           id="path1483" />
        <path
           d="m 40.719229,181.29365 q 0,0.39145 -0.113645,0.70713 -0.113646,0.31568 -0.321996,0.54297 -0.202036,0.22729 -0.48615,0.35356 -0.284114,0.11996 -0.618737,0.11996 -0.334623,0 -0.618737,-0.11996 -0.284113,-0.12627 -0.492463,-0.35356 -0.202037,-0.22729 -0.315682,-0.54297 -0.113646,-0.31568 -0.113646,-0.70713 0,-0.38513 0.113646,-0.70081 0.113645,-0.322 0.315682,-0.54929 0.20835,-0.22729 0.492463,-0.34725 0.284114,-0.12627 0.618737,-0.12627 0.334623,0 0.618737,0.12627 0.284114,0.11996 0.48615,0.34725 0.20835,0.22729 0.321996,0.54929 0.113645,0.31568 0.113645,0.70081 z m -0.612423,0 q 0,-0.5556 -0.252545,-0.8776 -0.246232,-0.32831 -0.67556,-0.32831 -0.429327,0 -0.681873,0.32831 -0.246232,0.322 -0.246232,0.8776 0,0.5556 0.246232,0.88391 0.252546,0.32199 0.681873,0.32199 0.429328,0 0.67556,-0.32199 0.252545,-0.32831 0.252545,-0.88391 z"
           style="font-family:Ubuntu;-inkscape-font-specification:Ubuntu"
           id="path1485" />
        <path
           d="m 48.883211,180.3466 q -0.107332,-0.0884 -0.309368,-0.17046 -0.202037,-0.0821 -0.441955,-0.0821 -0.252546,0 -0.435641,0.0947 -0.176782,0.0884 -0.290428,0.25255 -0.113645,0.15784 -0.164154,0.37882 -0.05051,0.22097 -0.05051,0.47352 0,0.57454 0.284114,0.89022 0.284114,0.30937 0.757637,0.30937 0.239918,0 0.397759,-0.0189 0.164155,-0.0252 0.252546,-0.0505 z m 0,-2.20977 0.587169,-0.10102 v 4.80468 q -0.202037,0.0568 -0.517719,0.11365 -0.315682,0.0568 -0.726069,0.0568 -0.378818,0 -0.681873,-0.11996 -0.303054,-0.11996 -0.517718,-0.34094 -0.214664,-0.22097 -0.334623,-0.53666 -0.113646,-0.32199 -0.113646,-0.71975 0,-0.37882 0.0947,-0.6945 0.101018,-0.31568 0.290427,-0.54297 0.18941,-0.2273 0.460896,-0.35357 0.2778,-0.12627 0.631364,-0.12627 0.284114,0 0.498778,0.0758 0.220977,0.0758 0.328309,0.14522 z"
           style="font-family:Ubuntu;-inkscape-font-specification:Ubuntu"
           id="path1487" />
        <path
           d="m 52.946264,182.9352 h -0.587169 v -3.2831 h 0.587169 z m -0.296741,-3.87658 q -0.157841,0 -0.271487,-0.10102 -0.107332,-0.10733 -0.107332,-0.28411 0,-0.17678 0.107332,-0.2778 0.113646,-0.10733 0.271487,-0.10733 0.157841,0 0.265172,0.10733 0.113646,0.10102 0.113646,0.2778 0,0.17678 -0.113646,0.28411 -0.107331,0.10102 -0.265172,0.10102 z"
           style="font-family:Ubuntu;-inkscape-font-specification:Ubuntu"
           id="path1489" />
        <path
           d="m 57.893221,182.60689 q -0.07576,0.0505 -0.296741,0.13258 -0.214663,0.0758 -0.505091,0.0758 -0.296741,0 -0.561914,-0.0947 -0.258859,-0.0947 -0.454582,-0.29043 -0.195723,-0.20203 -0.309368,-0.49877 -0.113646,-0.29674 -0.113646,-0.70713 0,-0.35988 0.107332,-0.65662 0.107332,-0.30305 0.309368,-0.51772 0.208351,-0.22098 0.505092,-0.34093 0.296741,-0.12628 0.669246,-0.12628 0.410386,0 0.713441,0.0631 0.309368,0.0568 0.517718,0.10733 v 2.92953 q 0,0.75764 -0.391445,1.09857 -0.391446,0.34094 -1.186965,0.34094 -0.309368,0 -0.587168,-0.0505 -0.271487,-0.0505 -0.473523,-0.11996 l 0.107332,-0.5114 q 0.176782,0.0694 0.429327,0.11996 0.258859,0.0568 0.53666,0.0568 0.524032,0 0.751323,-0.20835 0.233604,-0.20835 0.233604,-0.66293 z m -0.0063,-2.43707 q -0.08839,-0.0252 -0.239919,-0.0442 -0.145213,-0.0253 -0.397759,-0.0253 -0.473523,0 -0.732382,0.30937 -0.252546,0.30937 -0.252546,0.82077 0,0.28412 0.06945,0.48615 0.07576,0.20204 0.195723,0.33463 0.126273,0.13258 0.284114,0.19572 0.164155,0.0631 0.334623,0.0631 0.233605,0 0.429327,-0.0631 0.195723,-0.0694 0.309369,-0.15784 z"
           style="font-family:Ubuntu;-inkscape-font-specification:Ubuntu"
           id="path1491" />
        <path
           d="m 61.949964,182.9352 h -0.587169 v -3.2831 h 0.587169 z m -0.296741,-3.87658 q -0.157841,0 -0.271487,-0.10102 -0.107332,-0.10733 -0.107332,-0.28411 0,-0.17678 0.107332,-0.2778 0.113646,-0.10733 0.271487,-0.10733 0.157841,0 0.265173,0.10733 0.113645,0.10102 0.113645,0.2778 0,0.17678 -0.113645,0.28411 -0.107332,0.10102 -0.265173,0.10102 z"
           style="font-family:Ubuntu;-inkscape-font-specification:Ubuntu"
           id="path1493" />
        <path
           d="m 65.387962,179.6521 h 1.243787 v 0.49247 h -1.243787 v 1.51527 q 0,0.24623 0.03788,0.41039 0.03788,0.15784 0.113645,0.25254 0.07576,0.0884 0.189409,0.12628 0.113646,0.0379 0.265173,0.0379 0.265173,0 0.423014,-0.0568 0.164155,-0.0631 0.227291,-0.0884 l 0.113646,0.48615 q -0.08839,0.0442 -0.309369,0.10734 -0.220977,0.0694 -0.505091,0.0694 -0.334623,0 -0.5556,-0.0821 -0.214664,-0.0884 -0.34725,-0.25886 -0.132587,-0.17047 -0.18941,-0.4167 -0.05051,-0.25255 -0.05051,-0.58086 v -2.92952 l 0.587169,-0.10102 z"
           style="font-family:Ubuntu;-inkscape-font-specification:Ubuntu"
           id="path1495" />
        <path
           d="m 70.36649,182.51218 q 0.20835,0 0.366191,-0.006 0.164155,-0.0126 0.271487,-0.0379 v -0.97862 q -0.06314,-0.0316 -0.20835,-0.0505 -0.1389,-0.0252 -0.340937,-0.0252 -0.132586,0 -0.284114,0.0189 -0.145213,0.0189 -0.271486,0.0821 -0.119959,0.0568 -0.202037,0.16415 -0.08208,0.10102 -0.08208,0.27149 0,0.31568 0.202037,0.44195 0.202036,0.11996 0.549286,0.11996 z m -0.05051,-2.94215 q 0.353564,0 0.593482,0.0947 0.246232,0.0884 0.391446,0.25886 0.151527,0.16415 0.214664,0.39776 0.06314,0.22729 0.06314,0.50509 v 2.05193 q -0.07576,0.0126 -0.214664,0.0379 -0.132586,0.0189 -0.303054,0.0379 -0.170469,0.0189 -0.372505,0.0316 -0.195723,0.0189 -0.391446,0.0189 -0.2778,0 -0.511405,-0.0568 -0.233604,-0.0568 -0.404073,-0.17678 -0.170468,-0.12627 -0.265173,-0.32831 -0.0947,-0.20203 -0.0947,-0.48615 0,-0.27148 0.107332,-0.46721 0.113645,-0.19572 0.303054,-0.31568 0.18941,-0.11996 0.441955,-0.17678 0.252546,-0.0568 0.530346,-0.0568 0.08839,0 0.183096,0.0126 0.0947,0.006 0.176782,0.0253 0.08839,0.0126 0.151527,0.0252 0.06314,0.0126 0.08839,0.0189 v -0.16415 q 0,-0.14522 -0.03157,-0.28412 -0.03157,-0.14521 -0.113646,-0.25254 -0.08208,-0.11365 -0.227291,-0.17678 -0.1389,-0.0694 -0.366191,-0.0694 -0.290427,0 -0.511405,0.0442 -0.214664,0.0379 -0.321996,0.0821 l -0.06945,-0.48615 q 0.113646,-0.0505 0.378819,-0.0947 0.265173,-0.0505 0.574541,-0.0505 z"
           style="font-family:Ubuntu;-inkscape-font-specification:Ubuntu"
           id="path1497" />
        <path
           d="m 75.414477,182.99833 q -0.542973,-0.0126 -0.770264,-0.2336 -0.227292,-0.22098 -0.227292,-0.68819 v -3.93971 l 0.587169,-0.10102 v 3.94603 q 0,0.14521 0.02526,0.23991 0.02525,0.0947 0.08208,0.15153 0.05682,0.0568 0.151527,0.0884 0.0947,0.0253 0.233605,0.0442 z"
           style="font-family:Ubuntu;-inkscape-font-specification:Ubuntu"
           id="path1499" />
        <path
           d="m 81.917976,179.6521 h 1.243787 v 0.49247 h -1.243787 v 1.51527 q 0,0.24623 0.03788,0.41039 0.03788,0.15784 0.113645,0.25254 0.07576,0.0884 0.189409,0.12628 0.113646,0.0379 0.265173,0.0379 0.265173,0 0.423014,-0.0568 0.164155,-0.0631 0.227291,-0.0884 l 0.113646,0.48615 q -0.08839,0.0442 -0.309369,0.10734 -0.220977,0.0694 -0.505091,0.0694 -0.334623,0 -0.5556,-0.0821 -0.214664,-0.0884 -0.34725,-0.25886 -0.132587,-0.17047 -0.18941,-0.4167 -0.05051,-0.25255 -0.05051,-0.58086 v -2.92952 l 0.587169,-0.10102 z"
           style="font-family:Ubuntu;-inkscape-font-specification:Ubuntu"
           id="path1501" />
        <path
           d="m 86.997519,179.58265 q 0.07576,0 0.170468,0.0126 0.101018,0.006 0.195723,0.0252 0.0947,0.0126 0.170468,0.0316 0.08208,0.0126 0.119959,0.0253 l -0.101018,0.5114 q -0.06945,-0.0252 -0.233605,-0.0568 -0.157841,-0.0379 -0.410386,-0.0379 -0.164155,0 -0.32831,0.0379 -0.157841,0.0316 -0.20835,0.0442 v 2.75906 H 85.7853 v -3.1442 q 0.20835,-0.0758 0.517718,-0.1389 0.309369,-0.0694 0.694501,-0.0694 z"
           style="font-family:Ubuntu;-inkscape-font-specification:Ubuntu"
           id="path1503" />
        <path
           d="m 91.212106,182.51218 q 0.20835,0 0.366191,-0.006 0.164154,-0.0126 0.271486,-0.0379 v -0.97862 q -0.06314,-0.0316 -0.20835,-0.0505 -0.1389,-0.0252 -0.340936,-0.0252 -0.132587,0 -0.284114,0.0189 -0.145214,0.0189 -0.271487,0.0821 -0.119959,0.0568 -0.202036,0.16415 -0.08208,0.10102 -0.08208,0.27149 0,0.31568 0.202037,0.44195 0.202036,0.11996 0.549287,0.11996 z m -0.05051,-2.94215 q 0.353563,0 0.593482,0.0947 0.246232,0.0884 0.391445,0.25886 0.151528,0.16415 0.214664,0.39776 0.06314,0.22729 0.06314,0.50509 v 2.05193 q -0.07576,0.0126 -0.214664,0.0379 -0.132587,0.0189 -0.303055,0.0379 -0.170468,0.0189 -0.372505,0.0316 -0.195723,0.0189 -0.391445,0.0189 -0.277801,0 -0.511405,-0.0568 -0.233605,-0.0568 -0.404073,-0.17678 -0.170469,-0.12627 -0.265173,-0.32831 -0.09471,-0.20203 -0.09471,-0.48615 0,-0.27148 0.107332,-0.46721 0.113646,-0.19572 0.303055,-0.31568 0.189409,-0.11996 0.441955,-0.17678 0.252545,-0.0568 0.530345,-0.0568 0.08839,0 0.183096,0.0126 0.09471,0.006 0.176782,0.0253 0.08839,0.0126 0.151527,0.0252 0.06314,0.0126 0.08839,0.0189 v -0.16415 q 0,-0.14522 -0.03157,-0.28412 -0.03157,-0.14521 -0.113645,-0.25254 -0.08208,-0.11365 -0.227291,-0.17678 -0.138901,-0.0694 -0.366192,-0.0694 -0.290427,0 -0.511404,0.0442 -0.214664,0.0379 -0.321996,0.0821 l -0.06945,-0.48615 q 0.113645,-0.0505 0.378818,-0.0947 0.265173,-0.0505 0.574542,-0.0505 z"
           style="font-family:Ubuntu;-inkscape-font-specification:Ubuntu"
           id="path1505" />
        <path
           d="m 95.27516,179.74681 q 0.202037,-0.0505 0.53666,-0.10733 0.334623,-0.0568 0.770264,-0.0568 0.391446,0 0.650305,0.11365 0.258859,0.10733 0.410386,0.30937 0.157841,0.19572 0.220978,0.47352 0.06314,0.2778 0.06314,0.61242 v 1.84359 h -0.587168 v -1.71731 q 0,-0.30306 -0.0442,-0.51772 -0.03788,-0.21467 -0.132586,-0.34725 -0.0947,-0.13259 -0.252546,-0.18941 -0.157841,-0.0631 -0.391446,-0.0631 -0.0947,0 -0.195722,0.006 -0.101019,0.006 -0.195723,0.0189 -0.08839,0.006 -0.164155,0.0189 -0.06945,0.0126 -0.101018,0.0189 v 2.77169 H 95.27516 Z"
           style="font-family:Ubuntu;-inkscape-font-specification:Ubuntu"
           id="path1507" />
        <path
           d="m 101.54167,182.51218 q 0.35988,0 0.53035,-0.0947 0.17678,-0.0947 0.17678,-0.30306 0,-0.21466 -0.17047,-0.34093 -0.17046,-0.12628 -0.56191,-0.28412 -0.18941,-0.0758 -0.36619,-0.15153 -0.17047,-0.0821 -0.29674,-0.1894 -0.12628,-0.10734 -0.20204,-0.25886 -0.0758,-0.15153 -0.0758,-0.37251 0,-0.43564 0.32199,-0.68819 0.322,-0.25885 0.8776,-0.25885 0.1389,0 0.2778,0.0189 0.1389,0.0126 0.25886,0.0379 0.11996,0.0189 0.20835,0.0442 0.0947,0.0253 0.14521,0.0442 l -0.10733,0.50509 q -0.0947,-0.0505 -0.29674,-0.10102 -0.20204,-0.0568 -0.48615,-0.0568 -0.24623,0 -0.42933,0.10102 -0.18309,0.0947 -0.18309,0.30305 0,0.10733 0.0379,0.18941 0.0442,0.0821 0.12627,0.15153 0.0884,0.0631 0.21466,0.11996 0.12628,0.0568 0.30306,0.11996 0.2336,0.0884 0.4167,0.17678 0.18309,0.0821 0.30937,0.19572 0.13258,0.11365 0.20203,0.2778 0.0695,0.15784 0.0695,0.39145 0,0.45458 -0.34093,0.68818 -0.33463,0.23361 -0.95968,0.23361 -0.43564,0 -0.68187,-0.0758 -0.24623,-0.0695 -0.33462,-0.10734 l 0.10733,-0.50509 q 0.10102,0.0379 0.322,0.11365 0.22097,0.0758 0.58716,0.0758 z"
           style="font-family:Ubuntu;-inkscape-font-specification:Ubuntu"
           id="path1509" />
        <path
           d="m 106.75381,178.03581 q 0.25886,0 0.44196,0.0379 0.18941,0.0379 0.26517,0.0694 l -0.10733,0.50509 q -0.0758,-0.0379 -0.21467,-0.0695 -0.1389,-0.0379 -0.34093,-0.0379 -0.41039,0 -0.57454,0.22729 -0.16416,0.22098 -0.16416,0.5998 v 0.28411 h 1.26273 v 0.49247 h -1.26273 v 2.79063 h -0.58717 v -3.57984 q 0,-0.63136 0.30937,-0.9723 0.30937,-0.34725 0.9723,-0.34725 z"
           style="font-family:Ubuntu;-inkscape-font-specification:Ubuntu"
           id="path1511" />
        <path
           d="m 112.68571,181.29365 q 0,0.39145 -0.11365,0.70713 -0.11364,0.31568 -0.32199,0.54297 -0.20204,0.22729 -0.48615,0.35356 -0.28412,0.11996 -0.61874,0.11996 -0.33462,0 -0.61874,-0.11996 -0.28411,-0.12627 -0.49246,-0.35356 -0.20204,-0.22729 -0.31568,-0.54297 -0.11365,-0.31568 -0.11365,-0.70713 0,-0.38513 0.11365,-0.70081 0.11364,-0.322 0.31568,-0.54929 0.20835,-0.22729 0.49246,-0.34725 0.28412,-0.12627 0.61874,-0.12627 0.33462,0 0.61874,0.12627 0.28411,0.11996 0.48615,0.34725 0.20835,0.22729 0.32199,0.54929 0.11365,0.31568 0.11365,0.70081 z m -0.61242,0 q 0,-0.5556 -0.25255,-0.8776 -0.24623,-0.32831 -0.67556,-0.32831 -0.42933,0 -0.68187,0.32831 -0.24623,0.322 -0.24623,0.8776 0,0.5556 0.24623,0.88391 0.25254,0.32199 0.68187,0.32199 0.42933,0 0.67556,-0.32199 0.25255,-0.32831 0.25255,-0.88391 z"
           style="font-family:Ubuntu;-inkscape-font-specification:Ubuntu"
           id="path1513" />
        <path
           d="m 116.60354,179.58265 q 0.0758,0 0.17047,0.0126 0.10102,0.006 0.19573,0.0252 0.0947,0.0126 0.17046,0.0316 0.0821,0.0126 0.11996,0.0253 l -0.10102,0.5114 q -0.0694,-0.0252 -0.2336,-0.0568 -0.15784,-0.0379 -0.41039,-0.0379 -0.16415,0 -0.32831,0.0379 -0.15784,0.0316 -0.20835,0.0442 v 2.75906 h -0.58716 v -3.1442 q 0.20835,-0.0758 0.51771,-0.1389 0.30937,-0.0694 0.6945,-0.0694 z"
           style="font-family:Ubuntu;-inkscape-font-specification:Ubuntu"
           id="path1515" />
        <path
           d="m 119.70692,179.74681 q 0.20204,-0.0505 0.53035,-0.10733 0.33462,-0.0568 0.77026,-0.0568 0.31568,0 0.53035,0.0884 0.21466,0.0821 0.35988,0.24624 0.0442,-0.0316 0.1389,-0.0884 0.0947,-0.0568 0.2336,-0.10733 0.1389,-0.0568 0.30937,-0.0947 0.17047,-0.0442 0.36619,-0.0442 0.37882,0 0.61874,0.11365 0.23992,0.10733 0.3725,0.30937 0.1389,0.20203 0.1831,0.47983 0.0505,0.2778 0.0505,0.60611 v 1.84359 h -0.58717 v -1.71731 q 0,-0.29043 -0.0316,-0.49878 -0.0252,-0.20835 -0.10733,-0.34725 -0.0758,-0.1389 -0.21467,-0.20204 -0.13258,-0.0694 -0.34725,-0.0694 -0.29674,0 -0.49246,0.0821 -0.18941,0.0758 -0.25886,0.1389 0.0505,0.16415 0.0758,0.35988 0.0253,0.19572 0.0253,0.41038 v 1.84359 h -0.58717 V 181.218 q 0,-0.29043 -0.0316,-0.49878 -0.0316,-0.20835 -0.11364,-0.34725 -0.0758,-0.1389 -0.21467,-0.20204 -0.13258,-0.0694 -0.34093,-0.0694 -0.0884,0 -0.18941,0.006 -0.10102,0.006 -0.19573,0.0189 -0.0884,0.006 -0.16415,0.0189 -0.0758,0.0126 -0.10102,0.0189 v 2.77169 h -0.58717 z"
           style="font-family:Ubuntu;-inkscape-font-specification:Ubuntu"
           id="path1517" />
        <path
           d="m 128.1327,182.51218 q 0.20835,0 0.36619,-0.006 0.16415,-0.0126 0.27149,-0.0379 v -0.97862 q -0.0631,-0.0316 -0.20835,-0.0505 -0.1389,-0.0252 -0.34094,-0.0252 -0.13259,0 -0.28411,0.0189 -0.14522,0.0189 -0.27149,0.0821 -0.11996,0.0568 -0.20204,0.16415 -0.0821,0.10102 -0.0821,0.27149 0,0.31568 0.20203,0.44195 0.20204,0.11996 0.54929,0.11996 z m -0.0505,-2.94215 q 0.35356,0 0.59348,0.0947 0.24623,0.0884 0.39145,0.25886 0.15152,0.16415 0.21466,0.39776 0.0631,0.22729 0.0631,0.50509 v 2.05193 q -0.0758,0.0126 -0.21467,0.0379 -0.13258,0.0189 -0.30305,0.0379 -0.17047,0.0189 -0.37251,0.0316 -0.19572,0.0189 -0.39144,0.0189 -0.2778,0 -0.51141,-0.0568 -0.2336,-0.0568 -0.40407,-0.17678 -0.17047,-0.12627 -0.26517,-0.32831 -0.0947,-0.20203 -0.0947,-0.48615 0,-0.27148 0.10734,-0.46721 0.11364,-0.19572 0.30305,-0.31568 0.18941,-0.11996 0.44195,-0.17678 0.25255,-0.0568 0.53035,-0.0568 0.0884,0 0.1831,0.0126 0.0947,0.006 0.17678,0.0253 0.0884,0.0126 0.15153,0.0252 0.0631,0.0126 0.0884,0.0189 v -0.16415 q 0,-0.14522 -0.0316,-0.28412 -0.0316,-0.14521 -0.11365,-0.25254 -0.0821,-0.11365 -0.22729,-0.17678 -0.1389,-0.0694 -0.36619,-0.0694 -0.29043,0 -0.5114,0.0442 -0.21467,0.0379 -0.322,0.0821 l -0.0695,-0.48615 q 0.11365,-0.0505 0.37882,-0.0947 0.26517,-0.0505 0.57454,-0.0505 z"
           style="font-family:Ubuntu;-inkscape-font-specification:Ubuntu"
           id="path1519" />
        <path
           d="m 132.74504,179.6521 h 1.24379 v 0.49247 h -1.24379 v 1.51527 q 0,0.24623 0.0379,0.41039 0.0379,0.15784 0.11365,0.25254 0.0758,0.0884 0.18941,0.12628 0.11364,0.0379 0.26517,0.0379 0.26517,0 0.42301,-0.0568 0.16416,-0.0631 0.22729,-0.0884 l 0.11365,0.48615 q -0.0884,0.0442 -0.30937,0.10734 -0.22098,0.0694 -0.50509,0.0694 -0.33462,0 -0.5556,-0.0821 -0.21466,-0.0884 -0.34725,-0.25886 -0.13259,-0.17047 -0.18941,-0.4167 -0.0505,-0.25255 -0.0505,-0.58086 v -2.92952 l 0.58717,-0.10102 z"
           style="font-family:Ubuntu;-inkscape-font-specification:Ubuntu"
           id="path1521" />
        <path
           d="m 137.19954,182.9352 h -0.58717 v -3.2831 h 0.58717 z m -0.29674,-3.87658 q -0.15784,0 -0.27149,-0.10102 -0.10733,-0.10733 -0.10733,-0.28411 0,-0.17678 0.10733,-0.2778 0.11365,-0.10733 0.27149,-0.10733 0.15784,0 0.26517,0.10733 0.11365,0.10102 0.11365,0.2778 0,0.17678 -0.11365,0.28411 -0.10733,0.10102 -0.26517,0.10102 z"
           style="font-family:Ubuntu;-inkscape-font-specification:Ubuntu"
           id="path1523" />
        <path
           d="m 142.98622,181.29365 q 0,0.39145 -0.11365,0.70713 -0.11364,0.31568 -0.32199,0.54297 -0.20204,0.22729 -0.48616,0.35356 -0.28411,0.11996 -0.61873,0.11996 -0.33462,0 -0.61874,-0.11996 -0.28411,-0.12627 -0.49246,-0.35356 -0.20204,-0.22729 -0.31568,-0.54297 -0.11365,-0.31568 -0.11365,-0.70713 0,-0.38513 0.11365,-0.70081 0.11364,-0.322 0.31568,-0.54929 0.20835,-0.22729 0.49246,-0.34725 0.28412,-0.12627 0.61874,-0.12627 0.33462,0 0.61873,0.12627 0.28412,0.11996 0.48616,0.34725 0.20835,0.22729 0.32199,0.54929 0.11365,0.31568 0.11365,0.70081 z m -0.61243,0 q 0,-0.5556 -0.25254,-0.8776 -0.24623,-0.32831 -0.67556,-0.32831 -0.42933,0 -0.68188,0.32831 -0.24623,0.322 -0.24623,0.8776 0,0.5556 0.24623,0.88391 0.25255,0.32199 0.68188,0.32199 0.42933,0 0.67556,-0.32199 0.25254,-0.32831 0.25254,-0.88391 z"
           style="font-family:Ubuntu;-inkscape-font-specification:Ubuntu"
           id="path1525" />
        <path
           d="m 145.69183,179.74681 q 0.20204,-0.0505 0.53666,-0.10733 0.33462,-0.0568 0.77027,-0.0568 0.39144,0 0.6503,0.11365 0.25886,0.10733 0.41039,0.30937 0.15784,0.19572 0.22097,0.47352 0.0631,0.2778 0.0631,0.61242 v 1.84359 h -0.58717 v -1.71731 q 0,-0.30306 -0.0442,-0.51772 -0.0379,-0.21467 -0.13259,-0.34725 -0.0947,-0.13259 -0.25255,-0.18941 -0.15784,-0.0631 -0.39144,-0.0631 -0.0947,0 -0.19572,0.006 -0.10102,0.006 -0.19573,0.0189 -0.0884,0.006 -0.16415,0.0189 -0.0694,0.0126 -0.10102,0.0189 v 2.77169 h -0.58717 z"
           style="font-family:Ubuntu;-inkscape-font-specification:Ubuntu"
           id="path1527" />
      </g>
    </g>
  </g>
</svg>
