<?xml version="1.0" encoding="UTF-8" standalone="no"?>
<!-- Created with Inkscape (http://www.inkscape.org/) -->

<svg
   width="187.09839mm"
   height="90.013542mm"
   viewBox="0 0 187.09839 90.013542"
   version="1.1"
   id="svg1277"
   sodipodi:docname="logo-kava-light.svg"
   inkscape:version="1.1.1 (3bf5ae0d25, 2021-09-20)"
   xmlns:inkscape="http://www.inkscape.org/namespaces/inkscape"
   xmlns:sodipodi="http://sodipodi.sourceforge.net/DTD/sodipodi-0.dtd"
   xmlns="http://www.w3.org/2000/svg"
   xmlns:svg="http://www.w3.org/2000/svg">
  <sodipodi:namedview
     id="namedview1279"
     pagecolor="#ffffff"
     bordercolor="#666666"
     borderopacity="1.0"
     inkscape:pageshadow="2"
     inkscape:pageopacity="0.0"
     inkscape:pagecheckerboard="0"
     inkscape:document-units="mm"
     showgrid="false"
     fit-margin-top="0"
     fit-margin-left="0"
     fit-margin-right="0"
     fit-margin-bottom="0"
     inkscape:zoom="0.65512531"
     inkscape:cx="392.29136"
     inkscape:cy="211.40994"
     inkscape:window-width="1366"
     inkscape:window-height="705"
     inkscape:window-x="-8"
     inkscape:window-y="-8"
     inkscape:window-maximized="1"
     inkscape:current-layer="layer1" />
  <defs
     id="defs1274" />
  <g
     inkscape:label="Layer 1"
     inkscape:groupmode="layer"
     id="layer1"
     transform="translate(23.297274,-104.42416)">
    <g
       id="g219468"
       transform="translate(-463.47311,-244.6781)">
      <g
         id="g200305"
         transform="translate(3.4696676,5.3031918)">
        <g
           id="g197173"
           transform="matrix(0.3579608,0,0,0.3579608,509.41022,118.69321)">
          <path
             id="path197155"
             style="fill:#06b6d4;fill-opacity:1;stroke:none;stroke-width:240.738;stroke-linecap:square;stroke-linejoin:miter;stroke-miterlimit:4;stroke-dasharray:none;stroke-opacity:1"
             d="m -666.28711,2656.1953 -93.1875,88.2246 70.48047,166.5 h 130.5332 z"
             transform="matrix(0.26458333,0,0,0.26458333,150.2178,51.895939)" />
          <path
             id="path197157"
             style="fill:#0e7490;fill-opacity:1;stroke:none;stroke-width:284.533;stroke-linecap:square;stroke-linejoin:miter;stroke-miterlimit:4;stroke-dasharray:none;stroke-opacity:1"
             d="m -615.26367,2513.5 -333.25977,326.5605 -27.34765,70.8594 h 126.78711 L -443.51172,2513.5 Z"
             transform="matrix(0.26458333,0,0,0.26458333,150.2178,51.895939)" />
          <path
             id="path197159"
             style="fill:#0e7490;fill-opacity:1;stroke:none;stroke-width:240.738;stroke-linecap:square;stroke-linejoin:miter;stroke-miterlimit:4;stroke-dasharray:none;stroke-opacity:1"
             d="m -368.29883,2514.0137 -93.49414,91.6133 117.82422,305.2929 h 128.85156 z"
             transform="matrix(0.26458333,0,0,0.26458333,150.2178,51.895939)" />
          <path
             id="path197161"
             style="fill:#06b6d4;fill-opacity:1;stroke:none;stroke-width:284.533;stroke-linecap:square;stroke-linejoin:miter;stroke-miterlimit:4;stroke-dasharray:none;stroke-opacity:1"
             d="m -368.02539,2513.875 -222.58789,218.1133 50.35547,118.957 c 0,0 52.64519,-55.935 125.0013,-123.1933 72.35611,-67.2583 100.38986,-37.8934 126.17669,-8.4764 z"
             transform="matrix(0.26458333,0,0,0.26458333,150.2178,51.895939)"
             sodipodi:nodetypes="ccczcc" />
          <path
             id="path197163"
             style="fill:#0e7490;fill-opacity:1;stroke:none;stroke-width:240.738;stroke-linecap:square;stroke-linejoin:miter;stroke-miterlimit:4;stroke-dasharray:none;stroke-opacity:1"
             d="m 0.125,2513.5 -153.38086,397.4199 H -24.404297 L 128.97461,2513.5 Z"
             transform="matrix(0.26458333,0,0,0.26458333,150.2178,51.895939)" />
          <path
             id="path197165"
             style="fill:#06b6d4;fill-opacity:1;stroke:none;stroke-width:240.738;stroke-linecap:square;stroke-linejoin:miter;stroke-miterlimit:4;stroke-dasharray:none;stroke-opacity:1"
             d="m -306.56055,2513.5 153.37891,397.4199 h 128.777343 l 44.789628,-116.0474 c -71.289437,79.6755 -79.575759,25.727 -108.850978,-50.127 L -177.71289,2513.5 Z"
             transform="matrix(0.26458333,0,0,0.26458333,150.2178,51.895939)"
             sodipodi:nodetypes="ccccccc" />
          <path
             id="path197167"
             style="fill:#0e7490;fill-opacity:1;stroke:none;stroke-width:63.6953;stroke-linecap:square;stroke-linejoin:miter;stroke-miterlimit:4;stroke-dasharray:none;stroke-opacity:1"
             d="M 241.67372,822.07682 201.0917,716.92614 h 34.09197 l 40.5815,105.15068 z" />
          <path
             id="path197169"
             style="fill:#06b6d4;fill-opacity:1;stroke:none;stroke-width:63.6953;stroke-linecap:square;stroke-linejoin:miter;stroke-miterlimit:4;stroke-dasharray:none;stroke-opacity:1"
             d="m 160.52983,822.07682 40.5815,-105.15068 h 34.07234 l 17.15089,44.45 c -14.76344,-22.68778 -24.21385,-26.82013 -34.55138,-0.17158 l -23.16241,60.87226 z"
             sodipodi:nodetypes="ccccccc" />
          <path
             id="path197171"
             style="fill:#06b6d4;fill-opacity:1;stroke:none;stroke-width:240.738;stroke-linecap:square;stroke-linejoin:miter;stroke-miterlimit:4;stroke-dasharray:none;stroke-opacity:1"
             d="m -827.8418,2513.5 -153.38086,397.4199 h 132.13868 l 94.24452,-92.3602 c 0,0 -55.05804,32.2961 -70.82772,3.582 -15.76968,-28.7141 126.67499,-308.6417 126.67499,-308.6417 z"
             transform="matrix(0.26458333,0,0,0.26458333,150.2178,51.895939)"
             sodipodi:nodetypes="cccczcc" />
        </g>
        <g
           id="g197179"
           transform="matrix(0.51009778,0,0,0.51009778,543.00692,-94.124143)">
          <path
             id="path197175"
             style="color:#000000;fill:#0e7490;fill-opacity:1;stroke-width:12.8654;stroke-linecap:round;stroke-linejoin:round;-inkscape-stroke:none"
             d="m -144.41473,880.28742 a 6.4333599,6.4333599 0 0 0 -5.57144,3.21618 l -11.41263,19.76827 a 6.4333599,6.4333599 0 0 0 0,6.43237 l 11.41263,19.76824 a 6.4333599,6.4333599 0 0 0 5.57144,3.21618 h 15.39767 a 6.4333599,6.4333599 0 0 1 -5.5715,-3.21618 l -11.4126,-19.76824 a 6.4333599,6.4333599 0 0 1 0,-6.43237 l 11.4126,-19.76827 a 6.4333599,6.4333599 0 0 1 5.5715,-3.21618 z" />
          <path
             id="path197177"
             style="color:#000000;fill:#06b6d4;fill-opacity:1;stroke-width:12.8654;stroke-linecap:round;stroke-linejoin:round;-inkscape-stroke:none"
             d="m -171.04658,908.79005 a 6.4333599,6.4333599 0 0 1 5.57144,3.21618 l 11.41263,19.76827 a 6.4333599,6.4333599 0 0 1 0,6.43237 l -11.41263,19.76824 a 6.4333599,6.4333599 0 0 1 -5.57144,3.21618 h -15.39767 a 6.4333599,6.4333599 0 0 0 5.5715,-3.21618 l 11.4126,-19.76824 a 6.4333599,6.4333599 0 0 0 0,-6.43237 l -11.4126,-19.76827 a 6.4333599,6.4333599 0 0 0 -5.5715,-3.21618 z" />
        </g>
      </g>
      <g
         aria-label="lead to digital transformation"
         id="text208755"
         style="font-size:6.31364px;line-height:1.25;letter-spacing:1.87854px;fill:#0e7490;stroke-width:0.157841">
        <path
           d="m 474.83258,427.67642 q -0.54297,-0.0126 -0.77027,-0.23361 -0.22729,-0.22097 -0.22729,-0.68818 v -3.93972 l 0.58717,-0.10101 v 3.94602 q 0,0.14522 0.0253,0.23992 0.0252,0.0947 0.0821,0.15153 0.0568,0.0568 0.15153,0.0884 0.0947,0.0252 0.23361,0.0442 z"
           style="font-family:Ubuntu;-inkscape-font-specification:Ubuntu"
           id="path1793" />
        <path
           d="m 477.26671,425.97805 q 0,-0.43564 0.12627,-0.75764 0.12628,-0.32831 0.33463,-0.54297 0.20835,-0.21467 0.47983,-0.322 0.27149,-0.10733 0.5556,-0.10733 0.66294,0 1.0165,0.4167 0.35356,0.41039 0.35356,1.25642 0,0.0379 0,0.10101 0,0.0568 -0.006,0.10734 h -2.24766 q 0.0379,0.5114 0.29675,0.77657 0.25886,0.26518 0.80814,0.26518 0.30937,0 0.51772,-0.0505 0.21466,-0.0568 0.322,-0.10733 l 0.0821,0.49246 q -0.10733,0.0568 -0.37882,0.11996 -0.26517,0.0631 -0.6061,0.0631 -0.42933,0 -0.74501,-0.12627 -0.30937,-0.13258 -0.51141,-0.35988 -0.20204,-0.22729 -0.30305,-0.53665 -0.0947,-0.31569 -0.0947,-0.68819 z m 2.25397,-0.322 q 0.006,-0.39776 -0.20204,-0.6503 -0.20203,-0.25886 -0.56191,-0.25886 -0.20204,0 -0.35988,0.0821 -0.15152,0.0758 -0.25886,0.20203 -0.10733,0.12628 -0.17046,0.29043 -0.0568,0.16415 -0.0758,0.33462 z"
           style="font-family:Ubuntu;-inkscape-font-specification:Ubuntu"
           id="path1795" />
        <path
           d="m 483.96886,427.19027 q 0.20835,0 0.36619,-0.006 0.16416,-0.0126 0.27149,-0.0379 v -0.97861 q -0.0631,-0.0316 -0.20835,-0.0505 -0.1389,-0.0253 -0.34094,-0.0253 -0.13258,0 -0.28411,0.0189 -0.14522,0.0189 -0.27149,0.0821 -0.11996,0.0568 -0.20204,0.16416 -0.0821,0.10102 -0.0821,0.27148 0,0.31569 0.20203,0.44196 0.20204,0.11996 0.54929,0.11996 z m -0.0505,-2.94216 q 0.35357,0 0.59348,0.0947 0.24624,0.0884 0.39145,0.25885 0.15153,0.16416 0.21466,0.39776 0.0631,0.2273 0.0631,0.5051 v 2.05193 q -0.0758,0.0126 -0.21466,0.0379 -0.13259,0.0189 -0.30306,0.0379 -0.17047,0.0189 -0.3725,0.0316 -0.19573,0.0189 -0.39145,0.0189 -0.2778,0 -0.5114,-0.0568 -0.23361,-0.0568 -0.40408,-0.17678 -0.17047,-0.12628 -0.26517,-0.32831 -0.0947,-0.20204 -0.0947,-0.48615 0,-0.27149 0.10733,-0.46721 0.11364,-0.19573 0.30305,-0.31568 0.18941,-0.11996 0.44196,-0.17679 0.25254,-0.0568 0.53034,-0.0568 0.0884,0 0.1831,0.0126 0.0947,0.006 0.17678,0.0252 0.0884,0.0126 0.15153,0.0253 0.0631,0.0126 0.0884,0.0189 v -0.16416 q 0,-0.14521 -0.0316,-0.28411 -0.0316,-0.14521 -0.11365,-0.25255 -0.0821,-0.11364 -0.22729,-0.17678 -0.1389,-0.0695 -0.36619,-0.0695 -0.29043,0 -0.5114,0.0442 -0.21467,0.0379 -0.322,0.0821 l -0.0695,-0.48616 q 0.11365,-0.0505 0.37882,-0.0947 0.26517,-0.0505 0.57454,-0.0505 z"
           style="font-family:Ubuntu;-inkscape-font-specification:Ubuntu"
           id="path1797" />
        <path
           d="m 490.1533,425.02469 q -0.10733,-0.0884 -0.30937,-0.17047 -0.20204,-0.0821 -0.44195,-0.0821 -0.25255,0 -0.43565,0.0947 -0.17678,0.0884 -0.29042,0.25254 -0.11365,0.15784 -0.16416,0.37882 -0.0505,0.22098 -0.0505,0.47352 0,0.57455 0.28412,0.89023 0.28411,0.30937 0.75763,0.30937 0.23992,0 0.39776,-0.0189 0.16416,-0.0253 0.25255,-0.0505 z m 0,-2.20978 0.58717,-0.10101 v 4.80468 q -0.20204,0.0568 -0.51772,0.11364 -0.31568,0.0568 -0.72607,0.0568 -0.37882,0 -0.68187,-0.11995 -0.30306,-0.11996 -0.51772,-0.34094 -0.21466,-0.22098 -0.33462,-0.53666 -0.11365,-0.322 -0.11365,-0.71976 0,-0.37881 0.0947,-0.6945 0.10101,-0.31568 0.29042,-0.54297 0.18941,-0.22729 0.4609,-0.35356 0.2778,-0.12628 0.63136,-0.12628 0.28412,0 0.49878,0.0758 0.22098,0.0758 0.32831,0.14521 z"
           style="font-family:Ubuntu;-inkscape-font-specification:Ubuntu"
           id="path1799" />
        <path
           d="m 497.51545,424.33019 h 1.24379 v 0.49246 h -1.24379 v 1.51528 q 0,0.24623 0.0379,0.41038 0.0379,0.15784 0.11364,0.25255 0.0758,0.0884 0.18941,0.12627 0.11365,0.0379 0.26517,0.0379 0.26518,0 0.42302,-0.0568 0.16415,-0.0631 0.22729,-0.0884 l 0.11364,0.48615 q -0.0884,0.0442 -0.30936,0.10733 -0.22098,0.0695 -0.5051,0.0695 -0.33462,0 -0.5556,-0.0821 -0.21466,-0.0884 -0.34725,-0.25886 -0.13258,-0.17046 -0.1894,-0.4167 -0.0505,-0.25254 -0.0505,-0.58085 v -2.92953 l 0.58716,-0.10102 z"
           style="font-family:Ubuntu;-inkscape-font-specification:Ubuntu"
           id="path1801" />
        <path
           d="m 504.19234,425.97173 q 0,0.39145 -0.11365,0.70713 -0.11364,0.31568 -0.32199,0.54298 -0.20204,0.22729 -0.48615,0.35356 -0.28412,0.11996 -0.61874,0.11996 -0.33462,0 -0.61874,-0.11996 -0.28411,-0.12627 -0.49246,-0.35356 -0.20204,-0.2273 -0.31568,-0.54298 -0.11365,-0.31568 -0.11365,-0.70713 0,-0.38513 0.11365,-0.70081 0.11364,-0.32199 0.31568,-0.54929 0.20835,-0.22729 0.49246,-0.34725 0.28412,-0.12627 0.61874,-0.12627 0.33462,0 0.61874,0.12627 0.28411,0.11996 0.48615,0.34725 0.20835,0.2273 0.32199,0.54929 0.11365,0.31568 0.11365,0.70081 z m -0.61242,0 q 0,-0.5556 -0.25255,-0.87759 -0.24623,-0.32831 -0.67556,-0.32831 -0.42933,0 -0.68187,0.32831 -0.24623,0.32199 -0.24623,0.87759 0,0.55561 0.24623,0.88391 0.25254,0.322 0.68187,0.322 0.42933,0 0.67556,-0.322 0.25255,-0.3283 0.25255,-0.88391 z"
           style="font-family:Ubuntu;-inkscape-font-specification:Ubuntu"
           id="path1803" />
        <path
           d="m 512.35632,425.02469 q -0.10733,-0.0884 -0.30937,-0.17047 -0.20203,-0.0821 -0.44195,-0.0821 -0.25255,0 -0.43564,0.0947 -0.17679,0.0884 -0.29043,0.25254 -0.11365,0.15784 -0.16416,0.37882 -0.0505,0.22098 -0.0505,0.47352 0,0.57455 0.28411,0.89023 0.28411,0.30937 0.75764,0.30937 0.23991,0 0.39776,-0.0189 0.16415,-0.0253 0.25254,-0.0505 z m 0,-2.20978 0.58717,-0.10101 v 4.80468 q -0.20204,0.0568 -0.51772,0.11364 -0.31568,0.0568 -0.72607,0.0568 -0.37882,0 -0.68187,-0.11995 -0.30306,-0.11996 -0.51772,-0.34094 -0.21466,-0.22098 -0.33462,-0.53666 -0.11365,-0.322 -0.11365,-0.71976 0,-0.37881 0.0947,-0.6945 0.10102,-0.31568 0.29042,-0.54297 0.18941,-0.22729 0.4609,-0.35356 0.2778,-0.12628 0.63136,-0.12628 0.28412,0 0.49878,0.0758 0.22098,0.0758 0.32831,0.14521 z"
           style="font-family:Ubuntu;-inkscape-font-specification:Ubuntu"
           id="path1805" />
        <path
           d="m 516.41937,427.61328 h -0.58716 v -3.28309 h 0.58716 z m -0.29674,-3.87657 q -0.15784,0 -0.27148,-0.10102 -0.10734,-0.10733 -0.10734,-0.28412 0,-0.17678 0.10734,-0.2778 0.11364,-0.10733 0.27148,-0.10733 0.15784,0 0.26518,0.10733 0.11364,0.10102 0.11364,0.2778 0,0.17679 -0.11364,0.28412 -0.10734,0.10102 -0.26518,0.10102 z"
           style="font-family:Ubuntu;-inkscape-font-specification:Ubuntu"
           id="path1807" />
        <path
           d="m 521.36633,427.28497 q -0.0758,0.0505 -0.29674,0.13259 -0.21466,0.0758 -0.50509,0.0758 -0.29674,0 -0.56191,-0.0947 -0.25886,-0.0947 -0.45459,-0.29043 -0.19572,-0.20204 -0.30937,-0.49878 -0.11364,-0.29674 -0.11364,-0.70713 0,-0.35987 0.10733,-0.65661 0.10733,-0.30306 0.30937,-0.51772 0.20835,-0.22098 0.50509,-0.34094 0.29674,-0.12627 0.66925,-0.12627 0.41038,0 0.71344,0.0631 0.30937,0.0568 0.51772,0.10734 v 2.92953 q 0,0.75763 -0.39145,1.09857 -0.39144,0.34094 -1.18696,0.34094 -0.30937,0 -0.58717,-0.0505 -0.27149,-0.0505 -0.47353,-0.11996 l 0.10734,-0.51141 q 0.17678,0.0694 0.42932,0.11996 0.25886,0.0568 0.53666,0.0568 0.52404,0 0.75133,-0.20835 0.2336,-0.20835 0.2336,-0.66293 z m -0.006,-2.43706 q -0.0884,-0.0253 -0.23992,-0.0442 -0.14521,-0.0253 -0.39776,-0.0253 -0.47352,0 -0.73238,0.30937 -0.25255,0.30936 -0.25255,0.82077 0,0.28411 0.0695,0.48615 0.0758,0.20204 0.19573,0.33462 0.12627,0.13259 0.28411,0.19572 0.16415,0.0631 0.33462,0.0631 0.23361,0 0.42933,-0.0631 0.19572,-0.0695 0.30937,-0.15784 z"
           style="font-family:Ubuntu;-inkscape-font-specification:Ubuntu"
           id="path1809" />
        <path
           d="m 525.42307,427.61328 h -0.58716 v -3.28309 h 0.58716 z m -0.29674,-3.87657 q -0.15784,0 -0.27148,-0.10102 -0.10734,-0.10733 -0.10734,-0.28412 0,-0.17678 0.10734,-0.2778 0.11364,-0.10733 0.27148,-0.10733 0.15784,0 0.26518,0.10733 0.11364,0.10102 0.11364,0.2778 0,0.17679 -0.11364,0.28412 -0.10734,0.10102 -0.26518,0.10102 z"
           style="font-family:Ubuntu;-inkscape-font-specification:Ubuntu"
           id="path1811" />
        <path
           d="m 528.86107,424.33019 h 1.24379 v 0.49246 h -1.24379 v 1.51528 q 0,0.24623 0.0379,0.41038 0.0379,0.15784 0.11365,0.25255 0.0758,0.0884 0.18941,0.12627 0.11364,0.0379 0.26517,0.0379 0.26517,0 0.42302,-0.0568 0.16415,-0.0631 0.22729,-0.0884 l 0.11364,0.48615 q -0.0884,0.0442 -0.30937,0.10733 -0.22097,0.0695 -0.50509,0.0695 -0.33462,0 -0.5556,-0.0821 -0.21466,-0.0884 -0.34725,-0.25886 -0.13258,-0.17046 -0.18941,-0.4167 -0.0505,-0.25254 -0.0505,-0.58085 v -2.92953 l 0.58717,-0.10102 z"
           style="font-family:Ubuntu;-inkscape-font-specification:Ubuntu"
           id="path1813" />
        <path
           d="m 533.8396,427.19027 q 0.20835,0 0.36619,-0.006 0.16416,-0.0126 0.27149,-0.0379 v -0.97861 q -0.0631,-0.0316 -0.20835,-0.0505 -0.1389,-0.0253 -0.34094,-0.0253 -0.13259,0 -0.28411,0.0189 -0.14522,0.0189 -0.27149,0.0821 -0.11996,0.0568 -0.20204,0.16416 -0.0821,0.10102 -0.0821,0.27148 0,0.31569 0.20203,0.44196 0.20204,0.11996 0.54929,0.11996 z m -0.0505,-2.94216 q 0.35357,0 0.59348,0.0947 0.24624,0.0884 0.39145,0.25885 0.15153,0.16416 0.21466,0.39776 0.0631,0.2273 0.0631,0.5051 v 2.05193 q -0.0758,0.0126 -0.21466,0.0379 -0.13259,0.0189 -0.30306,0.0379 -0.17047,0.0189 -0.3725,0.0316 -0.19573,0.0189 -0.39145,0.0189 -0.2778,0 -0.5114,-0.0568 -0.23361,-0.0568 -0.40408,-0.17678 -0.17047,-0.12628 -0.26517,-0.32831 -0.0947,-0.20204 -0.0947,-0.48615 0,-0.27149 0.10733,-0.46721 0.11364,-0.19573 0.30305,-0.31568 0.18941,-0.11996 0.44196,-0.17679 0.25254,-0.0568 0.53034,-0.0568 0.0884,0 0.1831,0.0126 0.0947,0.006 0.17678,0.0252 0.0884,0.0126 0.15153,0.0253 0.0631,0.0126 0.0884,0.0189 v -0.16416 q 0,-0.14521 -0.0316,-0.28411 -0.0316,-0.14521 -0.11365,-0.25255 -0.0821,-0.11364 -0.22729,-0.17678 -0.1389,-0.0695 -0.36619,-0.0695 -0.29043,0 -0.5114,0.0442 -0.21467,0.0379 -0.322,0.0821 l -0.0694,-0.48616 q 0.11365,-0.0505 0.37882,-0.0947 0.26517,-0.0505 0.57454,-0.0505 z"
           style="font-family:Ubuntu;-inkscape-font-specification:Ubuntu"
           id="path1815" />
        <path
           d="m 538.88759,427.67642 q -0.54298,-0.0126 -0.77027,-0.23361 -0.22729,-0.22097 -0.22729,-0.68818 v -3.93972 l 0.58717,-0.10101 v 3.94602 q 0,0.14522 0.0252,0.23992 0.0253,0.0947 0.0821,0.15153 0.0568,0.0568 0.15153,0.0884 0.0947,0.0252 0.2336,0.0442 z"
           style="font-family:Ubuntu;-inkscape-font-specification:Ubuntu"
           id="path1817" />
        <path
           d="m 545.39109,424.33019 h 1.24378 v 0.49246 h -1.24378 v 1.51528 q 0,0.24623 0.0379,0.41038 0.0379,0.15784 0.11364,0.25255 0.0758,0.0884 0.18941,0.12627 0.11365,0.0379 0.26518,0.0379 0.26517,0 0.42301,-0.0568 0.16415,-0.0631 0.22729,-0.0884 l 0.11365,0.48615 q -0.0884,0.0442 -0.30937,0.10733 -0.22098,0.0695 -0.50509,0.0695 -0.33463,0 -0.5556,-0.0821 -0.21467,-0.0884 -0.34725,-0.25886 -0.13259,-0.17046 -0.18941,-0.4167 -0.0505,-0.25254 -0.0505,-0.58085 v -2.92953 l 0.58717,-0.10102 z"
           style="font-family:Ubuntu;-inkscape-font-specification:Ubuntu"
           id="path1819" />
        <path
           d="m 550.47063,424.26074 q 0.0758,0 0.17047,0.0126 0.10102,0.006 0.19572,0.0253 0.0947,0.0126 0.17047,0.0316 0.0821,0.0126 0.11996,0.0252 l -0.10102,0.51141 q -0.0695,-0.0253 -0.23361,-0.0568 -0.15784,-0.0379 -0.41038,-0.0379 -0.16416,0 -0.32831,0.0379 -0.15784,0.0316 -0.20835,0.0442 v 2.75906 h -0.58717 v -3.14419 q 0.20835,-0.0758 0.51772,-0.1389 0.30937,-0.0695 0.6945,-0.0695 z"
           style="font-family:Ubuntu;-inkscape-font-specification:Ubuntu"
           id="path1821" />
        <path
           d="m 554.68522,427.19027 q 0.20835,0 0.36619,-0.006 0.16415,-0.0126 0.27148,-0.0379 v -0.97861 q -0.0631,-0.0316 -0.20835,-0.0505 -0.1389,-0.0253 -0.34093,-0.0253 -0.13259,0 -0.28412,0.0189 -0.14521,0.0189 -0.27148,0.0821 -0.11996,0.0568 -0.20204,0.16416 -0.0821,0.10102 -0.0821,0.27148 0,0.31569 0.20204,0.44196 0.20204,0.11996 0.54929,0.11996 z m -0.0505,-2.94216 q 0.35356,0 0.59348,0.0947 0.24623,0.0884 0.39144,0.25885 0.15153,0.16416 0.21467,0.39776 0.0631,0.2273 0.0631,0.5051 v 2.05193 q -0.0758,0.0126 -0.21466,0.0379 -0.13259,0.0189 -0.30305,0.0379 -0.17047,0.0189 -0.37251,0.0316 -0.19572,0.0189 -0.39144,0.0189 -0.2778,0 -0.51141,-0.0568 -0.2336,-0.0568 -0.40407,-0.17678 -0.17047,-0.12628 -0.26517,-0.32831 -0.0947,-0.20204 -0.0947,-0.48615 0,-0.27149 0.10733,-0.46721 0.11365,-0.19573 0.30306,-0.31568 0.18941,-0.11996 0.44195,-0.17679 0.25255,-0.0568 0.53035,-0.0568 0.0884,0 0.18309,0.0126 0.0947,0.006 0.17679,0.0252 0.0884,0.0126 0.15152,0.0253 0.0631,0.0126 0.0884,0.0189 v -0.16416 q 0,-0.14521 -0.0316,-0.28411 -0.0316,-0.14521 -0.11365,-0.25255 -0.0821,-0.11364 -0.22729,-0.17678 -0.1389,-0.0695 -0.36619,-0.0695 -0.29043,0 -0.51141,0.0442 -0.21466,0.0379 -0.32199,0.0821 l -0.0695,-0.48616 q 0.11364,-0.0505 0.37882,-0.0947 0.26517,-0.0505 0.57454,-0.0505 z"
           style="font-family:Ubuntu;-inkscape-font-specification:Ubuntu"
           id="path1823" />
        <path
           d="m 558.74827,424.42489 q 0.20204,-0.0505 0.53666,-0.10733 0.33462,-0.0568 0.77026,-0.0568 0.39145,0 0.65031,0.11364 0.25886,0.10734 0.41039,0.30937 0.15784,0.19573 0.22097,0.47353 0.0631,0.2778 0.0631,0.61242 v 1.84358 h -0.58717 v -1.71731 q 0,-0.30305 -0.0442,-0.51772 -0.0379,-0.21466 -0.13259,-0.34725 -0.0947,-0.13258 -0.25255,-0.18941 -0.15784,-0.0631 -0.39144,-0.0631 -0.0947,0 -0.19573,0.006 -0.10101,0.006 -0.19572,0.0189 -0.0884,0.006 -0.16415,0.0189 -0.0694,0.0126 -0.10102,0.0189 v 2.77169 h -0.58717 z"
           style="font-family:Ubuntu;-inkscape-font-specification:Ubuntu"
           id="path1825" />
        <path
           d="m 565.01478,427.19027 q 0.35988,0 0.53035,-0.0947 0.17678,-0.0947 0.17678,-0.30305 0,-0.21467 -0.17047,-0.34094 -0.17046,-0.12627 -0.56191,-0.28411 -0.18941,-0.0758 -0.36619,-0.15153 -0.17047,-0.0821 -0.29674,-0.18941 -0.12628,-0.10733 -0.20204,-0.25886 -0.0758,-0.15153 -0.0758,-0.3725 0,-0.43564 0.32199,-0.68819 0.322,-0.25886 0.8776,-0.25886 0.1389,0 0.2778,0.0189 0.1389,0.0126 0.25886,0.0379 0.11996,0.0189 0.20835,0.0442 0.0947,0.0252 0.14521,0.0442 l -0.10733,0.5051 q -0.0947,-0.0505 -0.29674,-0.10102 -0.20204,-0.0568 -0.48615,-0.0568 -0.24623,0 -0.42933,0.10102 -0.18309,0.0947 -0.18309,0.30306 0,0.10733 0.0379,0.18941 0.0442,0.0821 0.12627,0.15152 0.0884,0.0631 0.21466,0.11996 0.12628,0.0568 0.30306,0.11996 0.2336,0.0884 0.4167,0.17678 0.18309,0.0821 0.30937,0.19573 0.13258,0.11364 0.20203,0.2778 0.0694,0.15784 0.0694,0.39144 0,0.45459 -0.34093,0.68819 -0.33463,0.2336 -0.95968,0.2336 -0.43564,0 -0.68187,-0.0758 -0.24623,-0.0694 -0.33462,-0.10733 l 0.10733,-0.50509 q 0.10102,0.0379 0.322,0.11364 0.22097,0.0758 0.58716,0.0758 z"
           style="font-family:Ubuntu;-inkscape-font-specification:Ubuntu"
           id="path1827" />
        <path
           d="m 570.22692,422.7139 q 0.25886,0 0.44196,0.0379 0.18941,0.0379 0.26517,0.0695 l -0.10733,0.50509 q -0.0758,-0.0379 -0.21467,-0.0695 -0.1389,-0.0379 -0.34093,-0.0379 -0.41039,0 -0.57454,0.22729 -0.16416,0.22098 -0.16416,0.59979 v 0.28412 h 1.26273 v 0.49246 h -1.26273 v 2.79063 h -0.58717 v -3.57983 q 0,-0.63137 0.30937,-0.9723 0.30937,-0.34725 0.9723,-0.34725 z"
           style="font-family:Ubuntu;-inkscape-font-specification:Ubuntu"
           id="path1829" />
        <path
           d="m 576.15882,425.97173 q 0,0.39145 -0.11365,0.70713 -0.11364,0.31568 -0.32199,0.54298 -0.20204,0.22729 -0.48615,0.35356 -0.28412,0.11996 -0.61874,0.11996 -0.33462,0 -0.61874,-0.11996 -0.28411,-0.12627 -0.49246,-0.35356 -0.20204,-0.2273 -0.31568,-0.54298 -0.11365,-0.31568 -0.11365,-0.70713 0,-0.38513 0.11365,-0.70081 0.11364,-0.32199 0.31568,-0.54929 0.20835,-0.22729 0.49246,-0.34725 0.28412,-0.12627 0.61874,-0.12627 0.33462,0 0.61874,0.12627 0.28411,0.11996 0.48615,0.34725 0.20835,0.2273 0.32199,0.54929 0.11365,0.31568 0.11365,0.70081 z m -0.61242,0 q 0,-0.5556 -0.25255,-0.87759 -0.24623,-0.32831 -0.67556,-0.32831 -0.42933,0 -0.68187,0.32831 -0.24623,0.32199 -0.24623,0.87759 0,0.55561 0.24623,0.88391 0.25254,0.322 0.68187,0.322 0.42933,0 0.67556,-0.322 0.25255,-0.3283 0.25255,-0.88391 z"
           style="font-family:Ubuntu;-inkscape-font-specification:Ubuntu"
           id="path1831" />
        <path
           d="m 580.07665,424.26074 q 0.0758,0 0.17047,0.0126 0.10102,0.006 0.19573,0.0253 0.0947,0.0126 0.17046,0.0316 0.0821,0.0126 0.11996,0.0252 l -0.10102,0.51141 q -0.0694,-0.0253 -0.2336,-0.0568 -0.15784,-0.0379 -0.41039,-0.0379 -0.16415,0 -0.32831,0.0379 -0.15784,0.0316 -0.20835,0.0442 v 2.75906 h -0.58716 v -3.14419 q 0.20835,-0.0758 0.51771,-0.1389 0.30937,-0.0695 0.6945,-0.0695 z"
           style="font-family:Ubuntu;-inkscape-font-specification:Ubuntu"
           id="path1833" />
        <path
           d="m 583.18003,424.42489 q 0.20204,-0.0505 0.53035,-0.10733 0.33462,-0.0568 0.77026,-0.0568 0.31569,0 0.53035,0.0884 0.21466,0.0821 0.35988,0.24623 0.0442,-0.0316 0.1389,-0.0884 0.0947,-0.0568 0.2336,-0.10733 0.1389,-0.0568 0.30937,-0.0947 0.17047,-0.0442 0.36619,-0.0442 0.37882,0 0.61874,0.11364 0.23992,0.10734 0.3725,0.30937 0.1389,0.20204 0.1831,0.47984 0.0505,0.2778 0.0505,0.60611 v 1.84358 h -0.58717 v -1.71731 q 0,-0.29043 -0.0316,-0.49878 -0.0253,-0.20835 -0.10733,-0.34725 -0.0758,-0.1389 -0.21467,-0.20203 -0.13258,-0.0695 -0.34725,-0.0695 -0.29674,0 -0.49246,0.0821 -0.18941,0.0758 -0.25886,0.1389 0.0505,0.16416 0.0758,0.35988 0.0253,0.19572 0.0253,0.41039 v 1.84358 h -0.58717 v -1.71731 q 0,-0.29043 -0.0316,-0.49878 -0.0316,-0.20835 -0.11364,-0.34725 -0.0758,-0.1389 -0.21467,-0.20203 -0.13258,-0.0695 -0.34093,-0.0695 -0.0884,0 -0.18941,0.006 -0.10102,0.006 -0.19573,0.0189 -0.0884,0.006 -0.16415,0.0189 -0.0758,0.0126 -0.10102,0.0189 v 2.77169 h -0.58717 z"
           style="font-family:Ubuntu;-inkscape-font-specification:Ubuntu"
           id="path1835" />
        <path
           d="m 591.60581,427.19027 q 0.20835,0 0.36619,-0.006 0.16415,-0.0126 0.27149,-0.0379 v -0.97861 q -0.0631,-0.0316 -0.20835,-0.0505 -0.1389,-0.0253 -0.34094,-0.0253 -0.13259,0 -0.28411,0.0189 -0.14522,0.0189 -0.27149,0.0821 -0.11996,0.0568 -0.20204,0.16416 -0.0821,0.10102 -0.0821,0.27148 0,0.31569 0.20203,0.44196 0.20204,0.11996 0.54929,0.11996 z m -0.0505,-2.94216 q 0.35356,0 0.59348,0.0947 0.24623,0.0884 0.39145,0.25885 0.15153,0.16416 0.21466,0.39776 0.0631,0.2273 0.0631,0.5051 v 2.05193 q -0.0758,0.0126 -0.21467,0.0379 -0.13258,0.0189 -0.30305,0.0379 -0.17047,0.0189 -0.37251,0.0316 -0.19572,0.0189 -0.39144,0.0189 -0.2778,0 -0.51141,-0.0568 -0.2336,-0.0568 -0.40407,-0.17678 -0.17047,-0.12628 -0.26517,-0.32831 -0.0947,-0.20204 -0.0947,-0.48615 0,-0.27149 0.10734,-0.46721 0.11364,-0.19573 0.30305,-0.31568 0.18941,-0.11996 0.44196,-0.17679 0.25254,-0.0568 0.53034,-0.0568 0.0884,0 0.1831,0.0126 0.0947,0.006 0.17678,0.0252 0.0884,0.0126 0.15153,0.0253 0.0631,0.0126 0.0884,0.0189 v -0.16416 q 0,-0.14521 -0.0316,-0.28411 -0.0316,-0.14521 -0.11365,-0.25255 -0.0821,-0.11364 -0.22729,-0.17678 -0.1389,-0.0695 -0.36619,-0.0695 -0.29043,0 -0.5114,0.0442 -0.21467,0.0379 -0.322,0.0821 l -0.0694,-0.48616 q 0.11365,-0.0505 0.37882,-0.0947 0.26517,-0.0505 0.57454,-0.0505 z"
           style="font-family:Ubuntu;-inkscape-font-specification:Ubuntu"
           id="path1837" />
        <path
           d="m 596.21815,424.33019 h 1.24379 v 0.49246 h -1.24379 v 1.51528 q 0,0.24623 0.0379,0.41038 0.0379,0.15784 0.11365,0.25255 0.0758,0.0884 0.18941,0.12627 0.11364,0.0379 0.26517,0.0379 0.26517,0 0.42301,-0.0568 0.16416,-0.0631 0.22729,-0.0884 l 0.11365,0.48615 q -0.0884,0.0442 -0.30937,0.10733 -0.22098,0.0695 -0.50509,0.0695 -0.33462,0 -0.5556,-0.0821 -0.21466,-0.0884 -0.34725,-0.25886 -0.13259,-0.17046 -0.18941,-0.4167 -0.0505,-0.25254 -0.0505,-0.58085 v -2.92953 l 0.58717,-0.10102 z"
           style="font-family:Ubuntu;-inkscape-font-specification:Ubuntu"
           id="path1839" />
        <path
           d="m 600.67265,427.61328 h -0.58717 v -3.28309 h 0.58717 z m -0.29674,-3.87657 q -0.15784,0 -0.27149,-0.10102 -0.10733,-0.10733 -0.10733,-0.28412 0,-0.17678 0.10733,-0.2778 0.11365,-0.10733 0.27149,-0.10733 0.15784,0 0.26517,0.10733 0.11365,0.10102 0.11365,0.2778 0,0.17679 -0.11365,0.28412 -0.10733,0.10102 -0.26517,0.10102 z"
           style="font-family:Ubuntu;-inkscape-font-specification:Ubuntu"
           id="path1841" />
        <path
           d="m 606.45933,425.97173 q 0,0.39145 -0.11365,0.70713 -0.11364,0.31568 -0.32199,0.54298 -0.20204,0.22729 -0.48616,0.35356 -0.28411,0.11996 -0.61873,0.11996 -0.33462,0 -0.61874,-0.11996 -0.28411,-0.12627 -0.49246,-0.35356 -0.20204,-0.2273 -0.31568,-0.54298 -0.11365,-0.31568 -0.11365,-0.70713 0,-0.38513 0.11365,-0.70081 0.11364,-0.32199 0.31568,-0.54929 0.20835,-0.22729 0.49246,-0.34725 0.28412,-0.12627 0.61874,-0.12627 0.33462,0 0.61873,0.12627 0.28412,0.11996 0.48616,0.34725 0.20835,0.2273 0.32199,0.54929 0.11365,0.31568 0.11365,0.70081 z m -0.61243,0 q 0,-0.5556 -0.25254,-0.87759 -0.24623,-0.32831 -0.67556,-0.32831 -0.42933,0 -0.68187,0.32831 -0.24624,0.32199 -0.24624,0.87759 0,0.55561 0.24624,0.88391 0.25254,0.322 0.68187,0.322 0.42933,0 0.67556,-0.322 0.25254,-0.3283 0.25254,-0.88391 z"
           style="font-family:Ubuntu;-inkscape-font-specification:Ubuntu"
           id="path1843" />
        <path
           d="m 609.16494,424.42489 q 0.20204,-0.0505 0.53666,-0.10733 0.33462,-0.0568 0.77027,-0.0568 0.39144,0 0.6503,0.11364 0.25886,0.10734 0.41039,0.30937 0.15784,0.19573 0.22097,0.47353 0.0631,0.2778 0.0631,0.61242 v 1.84358 h -0.58717 v -1.71731 q 0,-0.30305 -0.0442,-0.51772 -0.0379,-0.21466 -0.13259,-0.34725 -0.0947,-0.13258 -0.25254,-0.18941 -0.15785,-0.0631 -0.39145,-0.0631 -0.0947,0 -0.19572,0.006 -0.10102,0.006 -0.19573,0.0189 -0.0884,0.006 -0.16415,0.0189 -0.0694,0.0126 -0.10102,0.0189 v 2.77169 h -0.58717 z"
           style="font-family:Ubuntu;-inkscape-font-specification:Ubuntu"
           id="path1845" />
      </g>
    </g>
  </g>
</svg>
